USFL
nRows=415
nColumns=2
inDegrees=yes
endheader
time	tib_ant_r	
3.65927	 55.174959	
3.69254	 55.170658	
3.72581	 55.177998	
3.75907	 55.182090	
3.79234	 55.190244	
3.8256	 55.209743	
3.85887	 55.173864	
3.89214	 55.174538	
3.9254	 55.176749	
3.95867	 55.165495	
3.99194	 55.165204	
4.0252	 55.163889	
4.05847	 55.158204	
4.09173	 55.162111	
4.125	 55.160557	
4.15827	 55.169247	
4.19153	 55.168453	
4.2248	 55.165507	
4.25806	 55.177548	
4.29133	 55.183865	
4.3246	 55.179171	
4.35786	 55.172391	
4.39113	 55.177807	
4.4244	 55.188116	
4.45766	 55.170354	
4.49093	 55.182098	
4.52419	 55.181748	
4.55746	 55.174156	
4.59073	 55.189253	
4.62399	 55.192134	
4.65726	 55.198999	
4.69052	 55.188706	
4.72379	 55.183470	
4.75706	 55.181902	
4.79032	 55.190601	
4.82359	 55.183500	
4.85685	 55.180965	
4.89012	 55.174565	
4.92339	 55.170604	
4.95665	 55.173305	
4.98992	 55.175154	
5.02319	 55.180631	
5.05645	 55.179207	
5.08972	 55.171818	
5.12298	 55.175825	
5.15625	 55.172896	
5.18952	 55.157943	
5.22278	 55.166063	
5.25605	 55.164245	
5.28931	 55.156077	
5.32258	 55.162967	
5.35585	 55.164575	
5.38911	 55.161290	
5.42238	 55.145192	
5.45565	 55.162009	
5.48891	 55.162167	
5.52218	 55.163369	
5.55544	 55.161529	
5.58871	 55.166424	
5.62198	 55.181046	
5.65524	 55.174388	
5.68851	 55.175628	
5.72177	 55.176994	
5.75504	 55.175531	
5.78831	 55.181523	
5.82157	 55.188126	
5.85484	 55.190052	
5.8881	 55.196122	
5.92137	 55.187849	
5.95464	 55.193168	
5.9879	 55.190090	
6.02117	 55.189666	
6.05444	 55.197757	
6.0877	 55.190852	
6.12097	 55.185819	
6.15423	 55.189859	
6.1875	 55.194533	
6.22077	 55.183265	
6.25403	 55.189704	
6.2873	 55.190096	
6.32056	 55.192908	
6.35383	 55.190781	
6.3871	 55.189885	
6.42036	 55.190300	
6.45363	 55.203048	
6.4869	 55.194168	
6.52016	 55.198038	
6.55343	 55.196065	
6.58669	 55.196291	
6.61996	 55.192081	
6.65323	 55.192211	
6.68649	 55.196997	
6.71976	 55.196370	
6.75302	 55.187305	
6.78629	 55.192600	
6.81956	 55.195955	
6.85282	 55.188776	
6.88609	 55.188751	
6.91935	 55.181834	
6.95262	 55.180816	
6.98589	 55.173621	
7.01915	 55.161704	
7.05242	 55.163969	
7.08569	 55.156490	
7.11895	 55.155916	
7.15222	 55.157138	
7.18548	 55.164640	
7.21875	 55.164639	
7.25202	 55.159487	
7.28528	 55.141329	
7.31855	 55.150564	
7.35181	 55.154673	
7.38508	 55.159460	
7.41835	 55.160430	
7.45161	 55.165292	
7.48488	 55.163379	
7.51815	 55.156836	
7.55141	 55.154224	
7.58468	 55.166297	
7.61794	 55.168119	
7.65121	 55.179421	
7.68448	 55.185309	
7.71774	 55.155791	
7.75101	 55.167488	
7.78427	 55.165178	
7.81754	 55.169977	
7.85081	 55.160434	
7.88407	 55.164940	
7.91734	 55.162193	
7.9506	 55.163394	
7.98387	 55.156984	
8.01714	 55.173141	
8.0504	 55.172035	
8.08367	 55.160255	
8.11694	 55.159591	
8.1502	 55.163951	
8.18347	 55.134538	
8.21673	 55.093355	
8.25	 55.113609	
8.28327	 55.134626	
8.31653	 55.146795	
8.3498	 55.157189	
8.38306	 55.139987	
8.41633	 55.149072	
8.4496	 55.146267	
8.48286	 55.134547	
8.51613	 55.130369	
8.5494	 55.100661	
8.58266	 55.099489	
8.61593	 55.099022	
8.64919	 55.084751	
8.68246	 55.077362	
8.71573	 55.075767	
8.74899	 55.079196	
8.78226	 55.073952	
8.81552	 55.068039	
8.84879	 55.061875	
8.88206	 55.062598	
8.91532	 55.064776	
8.94859	 55.085431	
8.98185	 55.061093	
9.01512	 55.011435	
9.04839	 54.992536	
9.08165	 54.990158	
9.11492	 54.987082	
9.14819	 54.983685	
9.18145	 54.975928	
9.21472	 54.995701	
9.24798	 54.971818	
9.28125	 54.973808	
9.31452	 54.972485	
9.34778	 54.981539	
9.38105	 54.983922	
9.41431	 54.985796	
9.44758	 54.991074	
9.48085	 55.013304	
9.51411	 55.001563	
9.54738	 55.002166	
9.58065	 55.007571	
9.61391	 54.994607	
9.64718	 55.002357	
9.68044	 55.009690	
9.71371	 55.003965	
9.74698	 55.009942	
9.78024	 55.016308	
9.81351	 55.006548	
9.84677	 55.025612	
9.88004	 55.022385	
9.91331	 55.011010	
9.94657	 55.011838	
9.97984	 55.013174	
10.0131	 55.024847	
10.0464	 55.022914	
10.0796	 55.023567	
10.1129	 55.034164	
10.1462	 55.037989	
10.1794	 55.034087	
10.2127	 55.013149	
10.246	 55.038990	
10.2792	 55.024843	
10.3125	 55.025743	
10.3458	 55.030550	
10.379	 55.007744	
10.4123	 55.010645	
10.4456	 55.025398	
10.4788	 55.004963	
10.5121	 54.996100	
10.5454	 54.991708	
10.5786	 54.995972	
10.6119	 55.004630	
10.6452	 54.993320	
10.6784	 54.986576	
10.7117	 54.985253	
10.745	 54.990302	
10.7782	 54.989281	
10.8115	 54.983686	
10.8448	 55.021472	
10.878	 55.003924	
10.9113	 55.016514	
10.9446	 55.017129	
10.9778	 55.010211	
11.0111	 55.023549	
11.0444	 55.024420	
11.0776	 55.015799	
11.1109	 55.029977	
11.1442	 55.028039	
11.1774	 55.029435	
11.2107	 55.026787	
11.244	 55.026935	
11.2772	 55.021481	
11.3105	 55.014103	
11.3437	 55.012338	
11.377	 55.008877	
11.4103	 54.989460	
11.4435	 55.008406	
11.4768	 55.017045	
11.5101	 55.029280	
11.5433	 55.033595	
11.5766	 55.027672	
11.6099	 55.030023	
11.6431	 55.037467	
11.6764	 55.033936	
11.7097	 55.031657	
11.7429	 55.017626	
11.7762	 55.019118	
11.8095	 55.017440	
11.8427	 55.001247	
11.876	 55.005306	
11.9093	 55.005549	
11.9425	 54.972866	
11.9758	 54.971084	
12.0091	 54.993644	
12.0423	 54.985481	
12.0756	 54.986032	
12.1089	 54.985567	
12.1421	 54.977870	
12.1754	 54.989205	
12.2087	 54.981096	
12.2419	 54.977909	
12.2752	 54.985361	
12.3085	 54.978074	
12.3417	 54.984099	
12.375	 54.979613	
12.4083	 54.985694	
12.4415	 54.981007	
12.4748	 54.983012	
12.5081	 54.986053	
12.5413	 55.011353	
12.5746	 54.999070	
12.6079	 54.997477	
12.6411	 55.012350	
12.6744	 55.033671	
12.7077	 55.025179	
12.7409	 55.022098	
12.7742	 55.013766	
12.8075	 55.019901	
12.8407	 55.020961	
12.874	 55.038859	
12.9073	 55.040306	
12.9405	 55.036191	
12.9738	 55.031430	
13.0071	 55.021293	
13.0403	 55.026117	
13.0736	 55.033923	
13.1069	 55.041885	
13.1401	 55.058954	
13.1734	 55.065840	
13.2067	 55.080319	
13.2399	 55.091944	
13.2732	 55.087728	
13.3065	 55.085286	
13.3397	 55.090251	
13.373	 55.080488	
13.4062	 55.079951	
13.4395	 55.069367	
13.4728	 55.069705	
13.506	 55.060998	
13.5393	 55.066269	
13.5726	 55.047581	
13.6058	 55.040102	
13.6391	 55.049102	
13.6724	 55.052899	
13.7056	 55.057175	
13.7389	 55.059553	
13.7722	 55.061149	
13.8054	 55.063605	
13.8387	 55.072395	
13.872	 55.066624	
13.9052	 55.062415	
13.9385	 55.074961	
13.9718	 55.063926	
14.005	 55.057193	
14.0383	 55.082641	
14.0716	 55.087724	
14.1048	 55.082010	
14.1381	 55.086379	
14.1714	 55.091027	
14.2046	 55.074430	
14.2379	 55.071260	
14.2712	 55.063906	
14.3044	 55.044050	
14.3377	 55.049559	
14.371	 55.040319	
14.4042	 55.054370	
14.4375	 55.066035	
14.4708	 55.061972	
14.504	 55.050877	
14.5373	 55.049275	
14.5706	 55.041315	
14.6038	 55.036840	
14.6371	 55.028492	
14.6704	 55.031615	
14.7036	 55.042324	
14.7369	 55.040501	
14.7702	 55.038692	
14.8034	 55.048716	
14.8367	 55.062335	
14.87	 55.069793	
14.9032	 55.069352	
14.9365	 55.072921	
14.9698	 55.064443	
15.003	 55.069190	
15.0363	 55.076648	
15.0696	 55.051658	
15.1028	 55.064274	
15.1361	 55.070367	
15.1694	 55.072370	
15.2026	 55.097975	
15.2359	 55.099488	
15.2692	 55.093222	
15.3024	 55.092575	
15.3357	 55.080945	
15.369	 55.081957	
15.4022	 55.073258	
15.4355	 55.078537	
15.4687	 55.074321	
15.502	 55.082854	
15.5353	 55.059753	
15.5685	 55.060339	
15.6018	 55.054943	
15.6351	 55.049821	
15.6683	 55.059941	
15.7016	 55.060578	
15.7349	 55.060262	
15.7681	 55.053215	
15.8014	 55.056758	
15.8347	 55.058020	
15.8679	 55.058922	
15.9012	 55.064357	
15.9345	 55.060749	
15.9677	 55.058441	
16.001	 55.066137	
16.0343	 55.070146	
16.0675	 55.071610	
16.1008	 55.079843	
16.1341	 55.073469	
16.1673	 55.084505	
16.2006	 55.084226	
16.2339	 55.089258	
16.2671	 55.091360	
16.3004	 55.099780	
16.3337	 55.111713	
16.3669	 55.097976	
16.4002	 55.102837	
16.4335	 55.105352	
16.4667	 55.104019	
16.5	 55.099441	
16.5333	 55.091525	
16.5665	 55.099172	
16.5998	 55.097303	
16.6331	 55.096095	
16.6663	 55.099834	
16.6996	 55.106974	
16.7329	 55.113287	
16.7661	 55.113359	
16.7994	 55.118166	
16.8327	 55.111580	
16.8659	 55.109411	
16.8992	 55.113080	
16.9325	 55.103902	
16.9657	 55.095732	
16.999	 55.100610	
17.0323	 55.097125	
17.0655	 55.094737	
17.0988	 55.100097	
17.1321	 55.094090	
17.1653	 55.095662	
17.1986	 55.091363	
17.2319	 55.108992	
17.2651	 55.108967	
17.2984	 55.097379	
17.3317	 55.083508	
17.3649	 55.083383	
17.3982	 55.084501	
17.4315	 55.083476	
